<svg xmlns="http://www.w3.org/2000/svg" viewBox="0 0 512 512">
<rect width="512" height="512" rx="112" fill="#ffe4eb"/>
<g transform="rotate(14 256 270)">
<rect x="246" y="52" width="20" height="80" rx="10" fill="#168c46"/>
<path fill="#f43f5e" d="M256 150C150 130 100 200 110 270C120 360 210 440 256 462C302 440 392 360 402 270C412 200 362 130 256 150Z"/>
<ellipse cx="168" cy="212" rx="22" ry="30" fill="#ff96aa"/>
<g fill="#ffe4a0"><ellipse cx="150" cy="260" rx="7" ry="11"/><ellipse cx="362" cy="260" rx="7" ry="11"/><ellipse cx="190" cy="370" rx="7" ry="11"/><ellipse cx="322" cy="370" rx="7" ry="11"/><ellipse cx="256" cy="410" rx="7" ry="11"/><ellipse cx="150" cy="190" rx="7" ry="11"/><ellipse cx="362" cy="190" rx="7" ry="11"/></g>
<g fill="#3c141e"><circle cx="205" cy="265" r="18"/><circle cx="307" cy="265" r="18"/></g>
<g fill="#fff"><circle cx="199" cy="258" r="6"/><circle cx="301" cy="258" r="6"/></g>
<g fill="#ff8296"><ellipse cx="160" cy="308" rx="24" ry="14"/><ellipse cx="352" cy="308" rx="24" ry="14"/></g>
<path d="M236 305Q256 328 276 305" stroke="#3c141e" stroke-width="8" fill="none" stroke-linecap="round"/>
<path fill="#34be5f" d="M256 156L140 152L172 118L205 136L228 98L256 130L284 98L307 136L340 118L372 152Z"/>
</g></svg>
